<svg width="384" height="32" viewBox="0 0 384 32" fill="none" xmlns="http://www.w3.org/2000/svg">
<path d="M14.7537 20.5474C14.7537 22.2596 14.5431 23.8175 14.1219 25.2211C13.7144 26.6246 13.0895 27.8316 12.2472 28.8421C11.4185 29.8386 10.3724 30.6175 9.10896 31.1789C7.84552 31.7263 6.35793 32 4.64618 32C3.87182 32 3.10425 31.9579 2.34347 31.8737C1.59627 31.7895 0.815119 31.6491 0 31.4526L0.366804 27.3053C0.407559 26.9403 0.550205 26.6456 0.794741 26.4211C1.03928 26.1965 1.3857 26.0842 1.83402 26.0842C2.06497 26.0842 2.35026 26.1263 2.68989 26.2105C3.02953 26.2807 3.43708 26.3158 3.91257 26.3158C4.57825 26.3158 5.15563 26.2246 5.6447 26.0421C6.14736 25.8456 6.56171 25.5298 6.88776 25.0947C7.2138 24.6456 7.45834 24.0632 7.62136 23.3474C7.78439 22.6316 7.8659 21.7474 7.8659 20.6947V0.989475H14.7537V20.5474Z" fill="#141414"/>
<path d="M14.7537 20.5474C14.7537 22.2596 14.5431 23.8175 14.1219 25.2211C13.7144 26.6246 13.0895 27.8316 12.2472 28.8421C11.4185 29.8386 10.3724 30.6175 9.10896 31.1789C7.84552 31.7263 6.35793 32 4.64618 32C3.87182 32 3.10425 31.9579 2.34347 31.8737C1.59627 31.7895 0.815119 31.6491 0 31.4526L0.366804 27.3053C0.407559 26.9403 0.550205 26.6456 0.794741 26.4211C1.03928 26.1965 1.3857 26.0842 1.83402 26.0842C2.06497 26.0842 2.35026 26.1263 2.68989 26.2105C3.02953 26.2807 3.43708 26.3158 3.91257 26.3158C4.57825 26.3158 5.15563 26.2246 5.6447 26.0421C6.14736 25.8456 6.56171 25.5298 6.88776 25.0947C7.2138 24.6456 7.45834 24.0632 7.62136 23.3474C7.78439 22.6316 7.8659 21.7474 7.8659 20.6947V0.989475H14.7537V20.5474Z" fill="#141414"/>
<path d="M14.7537 20.5474C14.7537 22.2596 14.5431 23.8175 14.1219 25.2211C13.7144 26.6246 13.0895 27.8316 12.2472 28.8421C11.4185 29.8386 10.3724 30.6175 9.10896 31.1789C7.84552 31.7263 6.35793 32 4.64618 32C3.87182 32 3.10425 31.9579 2.34347 31.8737C1.59627 31.7895 0.815119 31.6491 0 31.4526L0.366804 27.3053C0.407559 26.9403 0.550205 26.6456 0.794741 26.4211C1.03928 26.1965 1.3857 26.0842 1.83402 26.0842C2.06497 26.0842 2.35026 26.1263 2.68989 26.2105C3.02953 26.2807 3.43708 26.3158 3.91257 26.3158C4.57825 26.3158 5.15563 26.2246 5.6447 26.0421C6.14736 25.8456 6.56171 25.5298 6.88776 25.0947C7.2138 24.6456 7.45834 24.0632 7.62136 23.3474C7.78439 22.6316 7.8659 21.7474 7.8659 20.6947V0.989475H14.7537V20.5474Z" fill="#141414"/>
<path d="M37.8776 9.83158V31.6632H33.965C33.177 31.6632 32.6608 31.2982 32.4163 30.5684L32.0495 29.3053C31.6419 29.7123 31.2208 30.0842 30.786 30.4211C30.3513 30.7439 29.8826 31.0246 29.3799 31.2632C28.8909 31.4877 28.3543 31.6632 27.7701 31.7895C27.1995 31.9298 26.5746 32 25.8953 32C24.7406 32 23.7149 31.7965 22.8182 31.3895C21.9352 30.9684 21.188 30.386 20.5767 29.6421C19.9653 28.8982 19.5034 28.0211 19.191 27.0105C18.8785 26 18.7223 24.8912 18.7223 23.6842V9.83158H25.0394V23.6842C25.0394 24.7649 25.2772 25.6 25.7527 26.1895C26.2282 26.7789 26.9278 27.0737 27.8516 27.0737C28.5444 27.0737 29.1898 26.9263 29.7875 26.6316C30.3988 26.3228 30.9898 25.9088 31.5604 25.3895V9.83158H37.8776Z" fill="#141414"/>
<path d="M37.8776 9.83158V31.6632H33.965C33.177 31.6632 32.6608 31.2982 32.4163 30.5684L32.0495 29.3053C31.6419 29.7123 31.2208 30.0842 30.786 30.4211C30.3513 30.7439 29.8826 31.0246 29.3799 31.2632C28.8909 31.4877 28.3543 31.6632 27.7701 31.7895C27.1995 31.9298 26.5746 32 25.8953 32C24.7406 32 23.7149 31.7965 22.8182 31.3895C21.9352 30.9684 21.188 30.386 20.5767 29.6421C19.9653 28.8982 19.5034 28.0211 19.191 27.0105C18.8785 26 18.7223 24.8912 18.7223 23.6842V9.83158H25.0394V23.6842C25.0394 24.7649 25.2772 25.6 25.7527 26.1895C26.2282 26.7789 26.9278 27.0737 27.8516 27.0737C28.5444 27.0737 29.1898 26.9263 29.7875 26.6316C30.3988 26.3228 30.9898 25.9088 31.5604 25.3895V9.83158H37.8776Z" fill="#141414"/>
<path d="M37.8776 9.83158V31.6632H33.965C33.177 31.6632 32.6608 31.2982 32.4163 30.5684L32.0495 29.3053C31.6419 29.7123 31.2208 30.0842 30.786 30.4211C30.3513 30.7439 29.8826 31.0246 29.3799 31.2632C28.8909 31.4877 28.3543 31.6632 27.7701 31.7895C27.1995 31.9298 26.5746 32 25.8953 32C24.7406 32 23.7149 31.7965 22.8182 31.3895C21.9352 30.9684 21.188 30.386 20.5767 29.6421C19.9653 28.8982 19.5034 28.0211 19.191 27.0105C18.8785 26 18.7223 24.8912 18.7223 23.6842V9.83158H25.0394V23.6842C25.0394 24.7649 25.2772 25.6 25.7527 26.1895C26.2282 26.7789 26.9278 27.0737 27.8516 27.0737C28.5444 27.0737 29.1898 26.9263 29.7875 26.6316C30.3988 26.3228 30.9898 25.9088 31.5604 25.3895V9.83158H37.8776Z" fill="#141414"/>
<path d="M48.4868 0.147368V31.6632H42.1697V0.147368H48.4868Z" fill="#141414"/>
<path d="M48.4868 0.147368V31.6632H42.1697V0.147368H48.4868Z" fill="#141414"/>
<path d="M48.4868 0.147368V31.6632H42.1697V0.147368H48.4868Z" fill="#141414"/>
<path d="M59.2165 9.83158V31.6632H52.8993V9.83158H59.2165ZM59.8686 3.85263C59.8686 4.37193 59.7667 4.86316 59.5629 5.32632C59.3591 5.77544 59.0806 6.17544 58.7274 6.52632C58.3742 6.86316 57.9598 7.13684 57.4844 7.34737C57.0225 7.54386 56.5266 7.64211 55.9968 7.64211C55.4805 7.64211 54.9982 7.54386 54.5499 7.34737C54.1016 7.13684 53.7008 6.86316 53.3476 6.52632C53.008 6.17544 52.7363 5.77544 52.5325 5.32632C52.3423 4.86316 52.2472 4.37193 52.2472 3.85263C52.2472 3.3193 52.3423 2.82105 52.5325 2.35789C52.7363 1.89474 53.008 1.48772 53.3476 1.13684C53.7008 0.785966 54.1016 0.512281 54.5499 0.315789C54.9982 0.119299 55.4805 0.0210536 55.9968 0.0210536C56.5266 0.0210536 57.0225 0.119299 57.4844 0.315789C57.9598 0.512281 58.3742 0.785966 58.7274 1.13684C59.0806 1.48772 59.3591 1.89474 59.5629 2.35789C59.7667 2.82105 59.8686 3.3193 59.8686 3.85263Z" fill="#141414"/>
<path d="M59.2165 9.83158V31.6632H52.8993V9.83158H59.2165ZM59.8686 3.85263C59.8686 4.37193 59.7667 4.86316 59.5629 5.32632C59.3591 5.77544 59.0806 6.17544 58.7274 6.52632C58.3742 6.86316 57.9598 7.13684 57.4844 7.34737C57.0225 7.54386 56.5266 7.64211 55.9968 7.64211C55.4805 7.64211 54.9982 7.54386 54.5499 7.34737C54.1016 7.13684 53.7008 6.86316 53.3476 6.52632C53.008 6.17544 52.7363 5.77544 52.5325 5.32632C52.3423 4.86316 52.2472 4.37193 52.2472 3.85263C52.2472 3.3193 52.3423 2.82105 52.5325 2.35789C52.7363 1.89474 53.008 1.48772 53.3476 1.13684C53.7008 0.785966 54.1016 0.512281 54.5499 0.315789C54.9982 0.119299 55.4805 0.0210536 55.9968 0.0210536C56.5266 0.0210536 57.0225 0.119299 57.4844 0.315789C57.9598 0.512281 58.3742 0.785966 58.7274 1.13684C59.0806 1.48772 59.3591 1.89474 59.5629 2.35789C59.7667 2.82105 59.8686 3.3193 59.8686 3.85263Z" fill="#141414"/>
<path d="M59.2165 9.83158V31.6632H52.8993V9.83158H59.2165ZM59.8686 3.85263C59.8686 4.37193 59.7667 4.86316 59.5629 5.32632C59.3591 5.77544 59.0806 6.17544 58.7274 6.52632C58.3742 6.86316 57.9598 7.13684 57.4844 7.34737C57.0225 7.54386 56.5266 7.64211 55.9968 7.64211C55.4805 7.64211 54.9982 7.54386 54.5499 7.34737C54.1016 7.13684 53.7008 6.86316 53.3476 6.52632C53.008 6.17544 52.7363 5.77544 52.5325 5.32632C52.3423 4.86316 52.2472 4.37193 52.2472 3.85263C52.2472 3.3193 52.3423 2.82105 52.5325 2.35789C52.7363 1.89474 53.008 1.48772 53.3476 1.13684C53.7008 0.785966 54.1016 0.512281 54.5499 0.315789C54.9982 0.119299 55.4805 0.0210536 55.9968 0.0210536C56.5266 0.0210536 57.0225 0.119299 57.4844 0.315789C57.9598 0.512281 58.3742 0.785966 58.7274 1.13684C59.0806 1.48772 59.3591 1.89474 59.5629 2.35789C59.7667 2.82105 59.8686 3.3193 59.8686 3.85263Z" fill="#141414"/>
<path d="M74.5245 22.7789C73.261 22.8351 72.2218 22.9474 71.4067 23.1158C70.5915 23.2842 69.9462 23.4947 69.4707 23.7474C68.9953 24 68.6624 24.2877 68.4722 24.6105C68.2956 24.9333 68.2073 25.2842 68.2073 25.6632C68.2073 26.407 68.4043 26.9333 68.7983 27.2421C69.1922 27.5368 69.7696 27.6842 70.5304 27.6842C71.3455 27.6842 72.0588 27.5368 72.6701 27.2421C73.2814 26.9474 73.8996 26.4702 74.5245 25.8105V22.7789ZM63.1536 12.8632C64.4306 11.6982 65.8435 10.8351 67.3922 10.2737C68.9545 9.69824 70.6255 9.41053 72.4052 9.41053C73.6822 9.41053 74.8302 9.62807 75.8491 10.0632C76.8815 10.4842 77.751 11.0807 78.4574 11.8526C79.1775 12.6105 79.7277 13.5158 80.108 14.5684C80.4884 15.6211 80.6786 16.7719 80.6786 18.0211V31.6632H77.785C77.1872 31.6632 76.7321 31.5789 76.4196 31.4105C76.1208 31.2421 75.8694 30.8912 75.6656 30.3579L75.2173 29.1579C74.6875 29.6211 74.1781 30.0281 73.689 30.3789C73.1999 30.7298 72.6905 31.0316 72.1606 31.2842C71.6444 31.5228 71.0874 31.6982 70.4896 31.8105C69.9055 31.9368 69.2534 32 68.5334 32C67.5688 32 66.6926 31.8737 65.9046 31.6211C65.1167 31.3544 64.4442 30.9684 63.8872 30.4632C63.3438 29.9579 62.9226 29.3333 62.6237 28.5895C62.3249 27.8316 62.1754 26.9614 62.1754 25.9789C62.1754 25.193 62.3656 24.4 62.746 23.6C63.1264 22.786 63.7853 22.0491 64.7227 21.3895C65.6601 20.7158 66.9235 20.1544 68.513 19.7053C70.1025 19.2561 72.1063 19.0035 74.5245 18.9474V18.0211C74.5245 16.7439 74.2664 15.8246 73.7501 15.2632C73.2475 14.6877 72.5274 14.4 71.59 14.4C70.8429 14.4 70.2315 14.4842 69.756 14.6526C69.2805 14.8211 68.8526 15.0105 68.4722 15.2211C68.1054 15.4316 67.7454 15.6211 67.3922 15.7895C67.039 15.9579 66.6178 16.0421 66.1288 16.0421C65.694 16.0421 65.3272 15.9298 65.0284 15.7053C64.7295 15.4807 64.4849 15.214 64.2947 14.9053L63.1536 12.8632Z" fill="#141414"/>
<path d="M74.5245 22.7789C73.261 22.8351 72.2218 22.9474 71.4067 23.1158C70.5915 23.2842 69.9462 23.4947 69.4707 23.7474C68.9953 24 68.6624 24.2877 68.4722 24.6105C68.2956 24.9333 68.2073 25.2842 68.2073 25.6632C68.2073 26.407 68.4043 26.9333 68.7983 27.2421C69.1922 27.5368 69.7696 27.6842 70.5304 27.6842C71.3455 27.6842 72.0588 27.5368 72.6701 27.2421C73.2814 26.9474 73.8996 26.4702 74.5245 25.8105V22.7789ZM63.1536 12.8632C64.4306 11.6982 65.8435 10.8351 67.3922 10.2737C68.9545 9.69824 70.6255 9.41053 72.4052 9.41053C73.6822 9.41053 74.8302 9.62807 75.8491 10.0632C76.8815 10.4842 77.751 11.0807 78.4574 11.8526C79.1775 12.6105 79.7277 13.5158 80.108 14.5684C80.4884 15.6211 80.6786 16.7719 80.6786 18.0211V31.6632H77.785C77.1872 31.6632 76.7321 31.5789 76.4196 31.4105C76.1208 31.2421 75.8694 30.8912 75.6656 30.3579L75.2173 29.1579C74.6875 29.6211 74.1781 30.0281 73.689 30.3789C73.1999 30.7298 72.6905 31.0316 72.1606 31.2842C71.6444 31.5228 71.0874 31.6982 70.4896 31.8105C69.9055 31.9368 69.2534 32 68.5334 32C67.5688 32 66.6926 31.8737 65.9046 31.6211C65.1167 31.3544 64.4442 30.9684 63.8872 30.4632C63.3438 29.9579 62.9226 29.3333 62.6237 28.5895C62.3249 27.8316 62.1754 26.9614 62.1754 25.9789C62.1754 25.193 62.3656 24.4 62.746 23.6C63.1264 22.786 63.7853 22.0491 64.7227 21.3895C65.6601 20.7158 66.9235 20.1544 68.513 19.7053C70.1025 19.2561 72.1063 19.0035 74.5245 18.9474V18.0211C74.5245 16.7439 74.2664 15.8246 73.7501 15.2632C73.2475 14.6877 72.5274 14.4 71.59 14.4C70.8429 14.4 70.2315 14.4842 69.756 14.6526C69.2805 14.8211 68.8526 15.0105 68.4722 15.2211C68.1054 15.4316 67.7454 15.6211 67.3922 15.7895C67.039 15.9579 66.6178 16.0421 66.1288 16.0421C65.694 16.0421 65.3272 15.9298 65.0284 15.7053C64.7295 15.4807 64.4849 15.214 64.2947 14.9053L63.1536 12.8632Z" fill="#141414"/>
<path d="M74.5245 22.7789C73.261 22.8351 72.2218 22.9474 71.4067 23.1158C70.5915 23.2842 69.9462 23.4947 69.4707 23.7474C68.9953 24 68.6624 24.2877 68.4722 24.6105C68.2956 24.9333 68.2073 25.2842 68.2073 25.6632C68.2073 26.407 68.4043 26.9333 68.7983 27.2421C69.1922 27.5368 69.7696 27.6842 70.5304 27.6842C71.3455 27.6842 72.0588 27.5368 72.6701 27.2421C73.2814 26.9474 73.8996 26.4702 74.5245 25.8105V22.7789ZM63.1536 12.8632C64.4306 11.6982 65.8435 10.8351 67.3922 10.2737C68.9545 9.69824 70.6255 9.41053 72.4052 9.41053C73.6822 9.41053 74.8302 9.62807 75.8491 10.0632C76.8815 10.4842 77.751 11.0807 78.4574 11.8526C79.1775 12.6105 79.7277 13.5158 80.108 14.5684C80.4884 15.6211 80.6786 16.7719 80.6786 18.0211V31.6632H77.785C77.1872 31.6632 76.7321 31.5789 76.4196 31.4105C76.1208 31.2421 75.8694 30.8912 75.6656 30.3579L75.2173 29.1579C74.6875 29.6211 74.1781 30.0281 73.689 30.3789C73.1999 30.7298 72.6905 31.0316 72.1606 31.2842C71.6444 31.5228 71.0874 31.6982 70.4896 31.8105C69.9055 31.9368 69.2534 32 68.5334 32C67.5688 32 66.6926 31.8737 65.9046 31.6211C65.1167 31.3544 64.4442 30.9684 63.8872 30.4632C63.3438 29.9579 62.9226 29.3333 62.6237 28.5895C62.3249 27.8316 62.1754 26.9614 62.1754 25.9789C62.1754 25.193 62.3656 24.4 62.746 23.6C63.1264 22.786 63.7853 22.0491 64.7227 21.3895C65.6601 20.7158 66.9235 20.1544 68.513 19.7053C70.1025 19.2561 72.1063 19.0035 74.5245 18.9474V18.0211C74.5245 16.7439 74.2664 15.8246 73.7501 15.2632C73.2475 14.6877 72.5274 14.4 71.59 14.4C70.8429 14.4 70.2315 14.4842 69.756 14.6526C69.2805 14.8211 68.8526 15.0105 68.4722 15.2211C68.1054 15.4316 67.7454 15.6211 67.3922 15.7895C67.039 15.9579 66.6178 16.0421 66.1288 16.0421C65.694 16.0421 65.3272 15.9298 65.0284 15.7053C64.7295 15.4807 64.4849 15.214 64.2947 14.9053L63.1536 12.8632Z" fill="#141414"/>
<path d="M128.262 0.989475V31.6632H122.19V14.0211C122.19 13.614 122.196 13.1719 122.21 12.6947C122.237 12.2175 122.278 11.7333 122.332 11.2421L114.446 27.0105C114.201 27.5018 113.869 27.8737 113.447 28.1263C113.04 28.3789 112.571 28.5053 112.041 28.5053H111.104C110.574 28.5053 110.099 28.3789 109.677 28.1263C109.27 27.8737 108.944 27.5018 108.699 27.0105L100.813 11.2C100.854 11.7053 100.888 12.2035 100.915 12.6947C100.942 13.1719 100.956 13.614 100.956 14.0211V31.6632H94.883V0.989475H100.141C100.439 0.989475 100.698 0.996492 100.915 1.01053C101.146 1.02456 101.35 1.06667 101.526 1.13684C101.703 1.20702 101.859 1.3193 101.995 1.47369C102.144 1.61404 102.287 1.81754 102.423 2.08421L110.065 17.6421C110.336 18.1754 110.594 18.7298 110.839 19.3053C111.097 19.8807 111.342 20.4702 111.573 21.0737C111.804 20.4561 112.041 19.8526 112.286 19.2632C112.544 18.6737 112.816 18.1123 113.101 17.5789L120.722 2.08421C120.858 1.81754 120.994 1.61404 121.13 1.47369C121.279 1.3193 121.442 1.20702 121.619 1.13684C121.796 1.06667 121.993 1.02456 122.21 1.01053C122.441 0.996492 122.706 0.989475 123.005 0.989475H128.262Z" fill="#141414"/>
<path d="M128.262 0.989475V31.6632H122.19V14.0211C122.19 13.614 122.196 13.1719 122.21 12.6947C122.237 12.2175 122.278 11.7333 122.332 11.2421L114.446 27.0105C114.201 27.5018 113.869 27.8737 113.447 28.1263C113.04 28.3789 112.571 28.5053 112.041 28.5053H111.104C110.574 28.5053 110.099 28.3789 109.677 28.1263C109.27 27.8737 108.944 27.5018 108.699 27.0105L100.813 11.2C100.854 11.7053 100.888 12.2035 100.915 12.6947C100.942 13.1719 100.956 13.614 100.956 14.0211V31.6632H94.883V0.989475H100.141C100.439 0.989475 100.698 0.996492 100.915 1.01053C101.146 1.02456 101.35 1.06667 101.526 1.13684C101.703 1.20702 101.859 1.3193 101.995 1.47369C102.144 1.61404 102.287 1.81754 102.423 2.08421L110.065 17.6421C110.336 18.1754 110.594 18.7298 110.839 19.3053C111.097 19.8807 111.342 20.4702 111.573 21.0737C111.804 20.4561 112.041 19.8526 112.286 19.2632C112.544 18.6737 112.816 18.1123 113.101 17.5789L120.722 2.08421C120.858 1.81754 120.994 1.61404 121.13 1.47369C121.279 1.3193 121.442 1.20702 121.619 1.13684C121.796 1.06667 121.993 1.02456 122.21 1.01053C122.441 0.996492 122.706 0.989475 123.005 0.989475H128.262Z" fill="#141414"/>
<path d="M128.262 0.989475V31.6632H122.19V14.0211C122.19 13.614 122.196 13.1719 122.21 12.6947C122.237 12.2175 122.278 11.7333 122.332 11.2421L114.446 27.0105C114.201 27.5018 113.869 27.8737 113.447 28.1263C113.04 28.3789 112.571 28.5053 112.041 28.5053H111.104C110.574 28.5053 110.099 28.3789 109.677 28.1263C109.27 27.8737 108.944 27.5018 108.699 27.0105L100.813 11.2C100.854 11.7053 100.888 12.2035 100.915 12.6947C100.942 13.1719 100.956 13.614 100.956 14.0211V31.6632H94.883V0.989475H100.141C100.439 0.989475 100.698 0.996492 100.915 1.01053C101.146 1.02456 101.35 1.06667 101.526 1.13684C101.703 1.20702 101.859 1.3193 101.995 1.47369C102.144 1.61404 102.287 1.81754 102.423 2.08421L110.065 17.6421C110.336 18.1754 110.594 18.7298 110.839 19.3053C111.097 19.8807 111.342 20.4702 111.573 21.0737C111.804 20.4561 112.041 19.8526 112.286 19.2632C112.544 18.6737 112.816 18.1123 113.101 17.5789L120.722 2.08421C120.858 1.81754 120.994 1.61404 121.13 1.47369C121.279 1.3193 121.442 1.20702 121.619 1.13684C121.796 1.06667 121.993 1.02456 122.21 1.01053C122.441 0.996492 122.706 0.989475 123.005 0.989475H128.262Z" fill="#141414"/>
<path d="M143.738 22.7789C142.475 22.8351 141.435 22.9474 140.62 23.1158C139.805 23.2842 139.16 23.4947 138.684 23.7474C138.209 24 137.876 24.2877 137.686 24.6105C137.509 24.9333 137.421 25.2842 137.421 25.6632C137.421 26.407 137.618 26.9333 138.012 27.2421C138.406 27.5368 138.983 27.6842 139.744 27.6842C140.559 27.6842 141.272 27.5368 141.884 27.2421C142.495 26.9474 143.113 26.4702 143.738 25.8105V22.7789ZM132.367 12.8632C133.644 11.6982 135.057 10.8351 136.606 10.2737C138.168 9.69824 139.839 9.41053 141.619 9.41053C142.896 9.41053 144.044 9.62807 145.063 10.0632C146.095 10.4842 146.964 11.0807 147.671 11.8526C148.391 12.6105 148.941 13.5158 149.322 14.5684C149.702 15.6211 149.892 16.7719 149.892 18.0211V31.6632H146.998C146.401 31.6632 145.946 31.5789 145.633 31.4105C145.334 31.2421 145.083 30.8912 144.879 30.3579L144.431 29.1579C143.901 29.6211 143.392 30.0281 142.902 30.3789C142.413 30.7298 141.904 31.0316 141.374 31.2842C140.858 31.5228 140.301 31.6982 139.703 31.8105C139.119 31.9368 138.467 32 137.747 32C136.782 32 135.906 31.8737 135.118 31.6211C134.33 31.3544 133.658 30.9684 133.101 30.4632C132.557 29.9579 132.136 29.3333 131.837 28.5895C131.538 27.8316 131.389 26.9614 131.389 25.9789C131.389 25.193 131.579 24.4 131.959 23.6C132.34 22.786 132.999 22.0491 133.936 21.3895C134.874 20.7158 136.137 20.1544 137.726 19.7053C139.316 19.2561 141.32 19.0035 143.738 18.9474V18.0211C143.738 16.7439 143.48 15.8246 142.964 15.2632C142.461 14.6877 141.741 14.4 140.804 14.4C140.056 14.4 139.445 14.4842 138.97 14.6526C138.494 14.8211 138.066 15.0105 137.686 15.2211C137.319 15.4316 136.959 15.6211 136.606 15.7895C136.252 15.9579 135.831 16.0421 135.342 16.0421C134.908 16.0421 134.541 15.9298 134.242 15.7053C133.943 15.4807 133.698 15.214 133.508 14.9053L132.367 12.8632Z" fill="#141414"/>
<path d="M143.738 22.7789C142.475 22.8351 141.435 22.9474 140.62 23.1158C139.805 23.2842 139.16 23.4947 138.684 23.7474C138.209 24 137.876 24.2877 137.686 24.6105C137.509 24.9333 137.421 25.2842 137.421 25.6632C137.421 26.407 137.618 26.9333 138.012 27.2421C138.406 27.5368 138.983 27.6842 139.744 27.6842C140.559 27.6842 141.272 27.5368 141.884 27.2421C142.495 26.9474 143.113 26.4702 143.738 25.8105V22.7789ZM132.367 12.8632C133.644 11.6982 135.057 10.8351 136.606 10.2737C138.168 9.69824 139.839 9.41053 141.619 9.41053C142.896 9.41053 144.044 9.62807 145.063 10.0632C146.095 10.4842 146.964 11.0807 147.671 11.8526C148.391 12.6105 148.941 13.5158 149.322 14.5684C149.702 15.6211 149.892 16.7719 149.892 18.0211V31.6632H146.998C146.401 31.6632 145.946 31.5789 145.633 31.4105C145.334 31.2421 145.083 30.8912 144.879 30.3579L144.431 29.1579C143.901 29.6211 143.392 30.0281 142.902 30.3789C142.413 30.7298 141.904 31.0316 141.374 31.2842C140.858 31.5228 140.301 31.6982 139.703 31.8105C139.119 31.9368 138.467 32 137.747 32C136.782 32 135.906 31.8737 135.118 31.6211C134.33 31.3544 133.658 30.9684 133.101 30.4632C132.557 29.9579 132.136 29.3333 131.837 28.5895C131.538 27.8316 131.389 26.9614 131.389 25.9789C131.389 25.193 131.579 24.4 131.959 23.6C132.34 22.786 132.999 22.0491 133.936 21.3895C134.874 20.7158 136.137 20.1544 137.726 19.7053C139.316 19.2561 141.32 19.0035 143.738 18.9474V18.0211C143.738 16.7439 143.48 15.8246 142.964 15.2632C142.461 14.6877 141.741 14.4 140.804 14.4C140.056 14.4 139.445 14.4842 138.97 14.6526C138.494 14.8211 138.066 15.0105 137.686 15.2211C137.319 15.4316 136.959 15.6211 136.606 15.7895C136.252 15.9579 135.831 16.0421 135.342 16.0421C134.908 16.0421 134.541 15.9298 134.242 15.7053C133.943 15.4807 133.698 15.214 133.508 14.9053L132.367 12.8632Z" fill="#141414"/>
<path d="M143.738 22.7789C142.475 22.8351 141.435 22.9474 140.62 23.1158C139.805 23.2842 139.16 23.4947 138.684 23.7474C138.209 24 137.876 24.2877 137.686 24.6105C137.509 24.9333 137.421 25.2842 137.421 25.6632C137.421 26.407 137.618 26.9333 138.012 27.2421C138.406 27.5368 138.983 27.6842 139.744 27.6842C140.559 27.6842 141.272 27.5368 141.884 27.2421C142.495 26.9474 143.113 26.4702 143.738 25.8105V22.7789ZM132.367 12.8632C133.644 11.6982 135.057 10.8351 136.606 10.2737C138.168 9.69824 139.839 9.41053 141.619 9.41053C142.896 9.41053 144.044 9.62807 145.063 10.0632C146.095 10.4842 146.964 11.0807 147.671 11.8526C148.391 12.6105 148.941 13.5158 149.322 14.5684C149.702 15.6211 149.892 16.7719 149.892 18.0211V31.6632H146.998C146.401 31.6632 145.946 31.5789 145.633 31.4105C145.334 31.2421 145.083 30.8912 144.879 30.3579L144.431 29.1579C143.901 29.6211 143.392 30.0281 142.902 30.3789C142.413 30.7298 141.904 31.0316 141.374 31.2842C140.858 31.5228 140.301 31.6982 139.703 31.8105C139.119 31.9368 138.467 32 137.747 32C136.782 32 135.906 31.8737 135.118 31.6211C134.33 31.3544 133.658 30.9684 133.101 30.4632C132.557 29.9579 132.136 29.3333 131.837 28.5895C131.538 27.8316 131.389 26.9614 131.389 25.9789C131.389 25.193 131.579 24.4 131.959 23.6C132.34 22.786 132.999 22.0491 133.936 21.3895C134.874 20.7158 136.137 20.1544 137.726 19.7053C139.316 19.2561 141.32 19.0035 143.738 18.9474V18.0211C143.738 16.7439 143.48 15.8246 142.964 15.2632C142.461 14.6877 141.741 14.4 140.804 14.4C140.056 14.4 139.445 14.4842 138.97 14.6526C138.494 14.8211 138.066 15.0105 137.686 15.2211C137.319 15.4316 136.959 15.6211 136.606 15.7895C136.252 15.9579 135.831 16.0421 135.342 16.0421C134.908 16.0421 134.541 15.9298 134.242 15.7053C133.943 15.4807 133.698 15.214 133.508 14.9053L132.367 12.8632Z" fill="#141414"/>
<path d="M159.84 13.2C160.492 12.0211 161.239 11.0947 162.081 10.4211C162.937 9.74737 163.915 9.41053 165.016 9.41053C165.967 9.41053 166.741 9.6421 167.339 10.1053L166.931 14.9053C166.863 15.214 166.748 15.4246 166.585 15.5368C166.435 15.6491 166.225 15.7053 165.953 15.7053C165.844 15.7053 165.702 15.6982 165.525 15.6842C165.349 15.6702 165.165 15.6561 164.975 15.6421C164.785 15.614 164.588 15.593 164.384 15.5789C164.194 15.5509 164.017 15.5368 163.854 15.5368C162.93 15.5368 162.19 15.7895 161.633 16.2947C161.09 16.8 160.628 17.5018 160.247 18.4V31.6632H153.93V9.83158H157.68C157.992 9.83158 158.25 9.85965 158.454 9.91579C158.671 9.97193 158.848 10.0632 158.984 10.1895C159.133 10.3018 159.242 10.4561 159.31 10.6526C159.391 10.8491 159.459 11.0877 159.514 11.3684L159.84 13.2Z" fill="#141414"/>
<path d="M159.84 13.2C160.492 12.0211 161.239 11.0947 162.081 10.4211C162.937 9.74737 163.915 9.41053 165.016 9.41053C165.967 9.41053 166.741 9.6421 167.339 10.1053L166.931 14.9053C166.863 15.214 166.748 15.4246 166.585 15.5368C166.435 15.6491 166.225 15.7053 165.953 15.7053C165.844 15.7053 165.702 15.6982 165.525 15.6842C165.349 15.6702 165.165 15.6561 164.975 15.6421C164.785 15.614 164.588 15.593 164.384 15.5789C164.194 15.5509 164.017 15.5368 163.854 15.5368C162.93 15.5368 162.19 15.7895 161.633 16.2947C161.09 16.8 160.628 17.5018 160.247 18.4V31.6632H153.93V9.83158H157.68C157.992 9.83158 158.25 9.85965 158.454 9.91579C158.671 9.97193 158.848 10.0632 158.984 10.1895C159.133 10.3018 159.242 10.4561 159.31 10.6526C159.391 10.8491 159.459 11.0877 159.514 11.3684L159.84 13.2Z" fill="#141414"/>
<path d="M159.84 13.2C160.492 12.0211 161.239 11.0947 162.081 10.4211C162.937 9.74737 163.915 9.41053 165.016 9.41053C165.967 9.41053 166.741 9.6421 167.339 10.1053L166.931 14.9053C166.863 15.214 166.748 15.4246 166.585 15.5368C166.435 15.6491 166.225 15.7053 165.953 15.7053C165.844 15.7053 165.702 15.6982 165.525 15.6842C165.349 15.6702 165.165 15.6561 164.975 15.6421C164.785 15.614 164.588 15.593 164.384 15.5789C164.194 15.5509 164.017 15.5368 163.854 15.5368C162.93 15.5368 162.19 15.7895 161.633 16.2947C161.09 16.8 160.628 17.5018 160.247 18.4V31.6632H153.93V9.83158H157.68C157.992 9.83158 158.25 9.85965 158.454 9.91579C158.671 9.97193 158.848 10.0632 158.984 10.1895C159.133 10.3018 159.242 10.4561 159.31 10.6526C159.391 10.8491 159.459 11.0877 159.514 11.3684L159.84 13.2Z" fill="#141414"/>
<path d="M192.336 31.6632H186.019V14.3368H177.175V25.1789C177.175 25.6842 177.29 26.1053 177.521 26.4421C177.766 26.7649 178.112 26.9263 178.56 26.9263C178.791 26.9263 178.982 26.9053 179.131 26.8632C179.294 26.807 179.43 26.7509 179.539 26.6947C179.661 26.6246 179.77 26.5684 179.865 26.5263C179.973 26.4702 180.096 26.4421 180.231 26.4421C180.422 26.4421 180.571 26.4912 180.68 26.5895C180.802 26.6737 180.924 26.814 181.047 27.0105L182.962 30.1053C182.147 30.7368 181.23 31.214 180.211 31.5368C179.192 31.8456 178.139 32 177.052 32C176.047 32 175.157 31.8526 174.383 31.5579C173.622 31.2491 172.977 30.8211 172.447 30.2737C171.931 29.7123 171.537 29.0386 171.265 28.2526C170.993 27.4667 170.858 26.5895 170.858 25.6211V14.3368H169.064C168.738 14.3368 168.46 14.2316 168.229 14.0211C167.998 13.7965 167.882 13.4737 167.882 13.0526V10.5053L171.245 9.81052L172.488 4.50526C172.651 3.83158 173.113 3.49474 173.873 3.49474H177.175V9.87368H192.336V31.6632ZM193.212 3.83158C193.212 4.35088 193.11 4.8421 192.907 5.30526C192.703 5.76842 192.424 6.17544 192.071 6.52632C191.718 6.86316 191.303 7.12982 190.828 7.32632C190.366 7.52281 189.87 7.62105 189.34 7.62105C188.824 7.62105 188.342 7.52281 187.894 7.32632C187.445 7.12982 187.044 6.86316 186.691 6.52632C186.352 6.17544 186.08 5.76842 185.876 5.30526C185.686 4.8421 185.591 4.35088 185.591 3.83158C185.591 3.31228 185.686 2.82105 185.876 2.35789C186.08 1.8807 186.352 1.47368 186.691 1.13684C187.044 0.785966 187.445 0.512281 187.894 0.315789C188.342 0.105263 188.824 0 189.34 0C189.87 0 190.366 0.105263 190.828 0.315789C191.303 0.512281 191.718 0.785966 192.071 1.13684C192.424 1.47368 192.703 1.8807 192.907 2.35789C193.11 2.82105 193.212 3.31228 193.212 3.83158Z" fill="#141414"/>
<path d="M192.336 31.6632H186.019V14.3368H177.175V25.1789C177.175 25.6842 177.29 26.1053 177.521 26.4421C177.766 26.7649 178.112 26.9263 178.56 26.9263C178.791 26.9263 178.982 26.9053 179.131 26.8632C179.294 26.807 179.43 26.7509 179.539 26.6947C179.661 26.6246 179.77 26.5684 179.865 26.5263C179.973 26.4702 180.096 26.4421 180.231 26.4421C180.422 26.4421 180.571 26.4912 180.68 26.5895C180.802 26.6737 180.924 26.814 181.047 27.0105L182.962 30.1053C182.147 30.7368 181.23 31.214 180.211 31.5368C179.192 31.8456 178.139 32 177.052 32C176.047 32 175.157 31.8526 174.383 31.5579C173.622 31.2491 172.977 30.8211 172.447 30.2737C171.931 29.7123 171.537 29.0386 171.265 28.2526C170.993 27.4667 170.858 26.5895 170.858 25.6211V14.3368H169.064C168.738 14.3368 168.46 14.2316 168.229 14.0211C167.998 13.7965 167.882 13.4737 167.882 13.0526V10.5053L171.245 9.81052L172.488 4.50526C172.651 3.83158 173.113 3.49474 173.873 3.49474H177.175V9.87368H192.336V31.6632ZM193.212 3.83158C193.212 4.35088 193.11 4.8421 192.907 5.30526C192.703 5.76842 192.424 6.17544 192.071 6.52632C191.718 6.86316 191.303 7.12982 190.828 7.32632C190.366 7.52281 189.87 7.62105 189.34 7.62105C188.824 7.62105 188.342 7.52281 187.894 7.32632C187.445 7.12982 187.044 6.86316 186.691 6.52632C186.352 6.17544 186.08 5.76842 185.876 5.30526C185.686 4.8421 185.591 4.35088 185.591 3.83158C185.591 3.31228 185.686 2.82105 185.876 2.35789C186.08 1.8807 186.352 1.47368 186.691 1.13684C187.044 0.785966 187.445 0.512281 187.894 0.315789C188.342 0.105263 188.824 0 189.34 0C189.87 0 190.366 0.105263 190.828 0.315789C191.303 0.512281 191.718 0.785966 192.071 1.13684C192.424 1.47368 192.703 1.8807 192.907 2.35789C193.11 2.82105 193.212 3.31228 193.212 3.83158Z" fill="#141414"/>
<path d="M192.336 31.6632H186.019V14.3368H177.175V25.1789C177.175 25.6842 177.29 26.1053 177.521 26.4421C177.766 26.7649 178.112 26.9263 178.56 26.9263C178.791 26.9263 178.982 26.9053 179.131 26.8632C179.294 26.807 179.43 26.7509 179.539 26.6947C179.661 26.6246 179.77 26.5684 179.865 26.5263C179.973 26.4702 180.096 26.4421 180.231 26.4421C180.422 26.4421 180.571 26.4912 180.68 26.5895C180.802 26.6737 180.924 26.814 181.047 27.0105L182.962 30.1053C182.147 30.7368 181.23 31.214 180.211 31.5368C179.192 31.8456 178.139 32 177.052 32C176.047 32 175.157 31.8526 174.383 31.5579C173.622 31.2491 172.977 30.8211 172.447 30.2737C171.931 29.7123 171.537 29.0386 171.265 28.2526C170.993 27.4667 170.858 26.5895 170.858 25.6211V14.3368H169.064C168.738 14.3368 168.46 14.2316 168.229 14.0211C167.998 13.7965 167.882 13.4737 167.882 13.0526V10.5053L171.245 9.81052L172.488 4.50526C172.651 3.83158 173.113 3.49474 173.873 3.49474H177.175V9.87368H192.336V31.6632ZM193.212 3.83158C193.212 4.35088 193.11 4.8421 192.907 5.30526C192.703 5.76842 192.424 6.17544 192.071 6.52632C191.718 6.86316 191.303 7.12982 190.828 7.32632C190.366 7.52281 189.87 7.62105 189.34 7.62105C188.824 7.62105 188.342 7.52281 187.894 7.32632C187.445 7.12982 187.044 6.86316 186.691 6.52632C186.352 6.17544 186.08 5.76842 185.876 5.30526C185.686 4.8421 185.591 4.35088 185.591 3.83158C185.591 3.31228 185.686 2.82105 185.876 2.35789C186.08 1.8807 186.352 1.47368 186.691 1.13684C187.044 0.785966 187.445 0.512281 187.894 0.315789C188.342 0.105263 188.824 0 189.34 0C189.87 0 190.366 0.105263 190.828 0.315789C191.303 0.512281 191.718 0.785966 192.071 1.13684C192.424 1.47368 192.703 1.8807 192.907 2.35789C193.11 2.82105 193.212 3.31228 193.212 3.83158Z" fill="#141414"/>
<path d="M202.584 12.1895C202.991 11.7965 203.413 11.4316 203.847 11.0947C204.282 10.7579 204.744 10.4772 205.233 10.2526C205.736 10.014 206.272 9.83158 206.843 9.70526C207.427 9.56491 208.059 9.49474 208.738 9.49474C209.893 9.49474 210.912 9.70526 211.795 10.1263C212.691 10.5333 213.445 11.1088 214.057 11.8526C214.668 12.5825 215.13 13.4596 215.442 14.4842C215.755 15.4947 215.911 16.5965 215.911 17.7895V31.6632H209.594V17.7895C209.594 16.7228 209.356 15.8947 208.881 15.3053C208.405 14.7018 207.705 14.4 206.782 14.4C206.089 14.4 205.437 14.5544 204.825 14.8632C204.228 15.1579 203.643 15.5649 203.073 16.0842V31.6632H196.756V9.83158H200.668C201.456 9.83158 201.972 10.1965 202.217 10.9263L202.584 12.1895Z" fill="#141414"/>
<path d="M202.584 12.1895C202.991 11.7965 203.413 11.4316 203.847 11.0947C204.282 10.7579 204.744 10.4772 205.233 10.2526C205.736 10.014 206.272 9.83158 206.843 9.70526C207.427 9.56491 208.059 9.49474 208.738 9.49474C209.893 9.49474 210.912 9.70526 211.795 10.1263C212.691 10.5333 213.445 11.1088 214.057 11.8526C214.668 12.5825 215.13 13.4596 215.442 14.4842C215.755 15.4947 215.911 16.5965 215.911 17.7895V31.6632H209.594V17.7895C209.594 16.7228 209.356 15.8947 208.881 15.3053C208.405 14.7018 207.705 14.4 206.782 14.4C206.089 14.4 205.437 14.5544 204.825 14.8632C204.228 15.1579 203.643 15.5649 203.073 16.0842V31.6632H196.756V9.83158H200.668C201.456 9.83158 201.972 10.1965 202.217 10.9263L202.584 12.1895Z" fill="#141414"/>
<path d="M202.584 12.1895C202.991 11.7965 203.413 11.4316 203.847 11.0947C204.282 10.7579 204.744 10.4772 205.233 10.2526C205.736 10.014 206.272 9.83158 206.843 9.70526C207.427 9.56491 208.059 9.49474 208.738 9.49474C209.893 9.49474 210.912 9.70526 211.795 10.1263C212.691 10.5333 213.445 11.1088 214.057 11.8526C214.668 12.5825 215.13 13.4596 215.442 14.4842C215.755 15.4947 215.911 16.5965 215.911 17.7895V31.6632H209.594V17.7895C209.594 16.7228 209.356 15.8947 208.881 15.3053C208.405 14.7018 207.705 14.4 206.782 14.4C206.089 14.4 205.437 14.5544 204.825 14.8632C204.228 15.1579 203.643 15.5649 203.073 16.0842V31.6632H196.756V9.83158H200.668C201.456 9.83158 201.972 10.1965 202.217 10.9263L202.584 12.1895Z" fill="#141414"/>
<path d="M233.428 14.6105C233.265 14.8772 233.089 15.0667 232.899 15.1789C232.722 15.2912 232.491 15.3474 232.206 15.3474C231.907 15.3474 231.608 15.2842 231.309 15.1579C231.01 15.0175 230.684 14.8702 230.331 14.7158C229.991 14.5614 229.604 14.4211 229.169 14.2947C228.735 14.1544 228.239 14.0842 227.682 14.0842C226.88 14.0842 226.262 14.2456 225.827 14.5684C225.406 14.8772 225.196 15.3123 225.196 15.8737C225.196 16.2807 225.332 16.6175 225.603 16.8842C225.889 17.1509 226.262 17.3895 226.724 17.6C227.186 17.7965 227.709 17.986 228.293 18.1684C228.877 18.3509 229.475 18.5544 230.086 18.7789C230.698 19.0035 231.296 19.2702 231.88 19.5789C232.464 19.8737 232.987 20.2456 233.449 20.6947C233.911 21.1298 234.278 21.6632 234.549 22.2947C234.835 22.9263 234.977 23.6842 234.977 24.5684C234.977 25.6491 234.787 26.6456 234.407 27.5579C234.026 28.4702 233.456 29.2561 232.695 29.9158C231.948 30.5754 231.017 31.0877 229.903 31.4526C228.803 31.8175 227.532 32 226.092 32C225.372 32 224.652 31.9298 223.932 31.7895C223.212 31.6491 222.513 31.4596 221.833 31.2211C221.168 30.9825 220.55 30.7018 219.979 30.3789C219.408 30.0421 218.919 29.6842 218.512 29.3053L219.979 26.9053C220.142 26.6246 220.346 26.407 220.59 26.2526C220.848 26.0842 221.174 26 221.568 26C221.935 26 222.261 26.0842 222.547 26.2526C222.845 26.4211 223.165 26.6035 223.504 26.8C223.844 26.9965 224.238 27.1789 224.686 27.3474C225.148 27.5158 225.726 27.6 226.418 27.6C226.907 27.6 227.322 27.5509 227.661 27.4526C228.001 27.3404 228.273 27.193 228.477 27.0105C228.68 26.8281 228.83 26.6246 228.925 26.4C229.02 26.1754 229.068 25.9439 229.068 25.7053C229.068 25.2702 228.925 24.9123 228.64 24.6316C228.354 24.3509 227.981 24.1123 227.519 23.9158C227.057 23.7053 226.527 23.5158 225.929 23.3474C225.345 23.1649 224.747 22.9614 224.136 22.7368C223.525 22.5123 222.92 22.2456 222.322 21.9368C221.738 21.614 221.215 21.214 220.753 20.7368C220.291 20.2456 219.918 19.6491 219.633 18.9474C219.347 18.2456 219.205 17.3965 219.205 16.4C219.205 15.4737 219.374 14.5965 219.714 13.7684C220.067 12.9263 220.59 12.1895 221.283 11.5579C221.976 10.9263 222.845 10.4281 223.892 10.0632C224.938 9.68421 226.16 9.49474 227.56 9.49474C228.32 9.49474 229.054 9.56491 229.76 9.70526C230.48 9.84561 231.153 10.0421 231.778 10.2947C232.403 10.5474 232.973 10.8491 233.49 11.2C234.006 11.5368 234.461 11.9088 234.855 12.3158L233.428 14.6105Z" fill="#141414"/>
<path d="M233.428 14.6105C233.265 14.8772 233.089 15.0667 232.899 15.1789C232.722 15.2912 232.491 15.3474 232.206 15.3474C231.907 15.3474 231.608 15.2842 231.309 15.1579C231.01 15.0175 230.684 14.8702 230.331 14.7158C229.991 14.5614 229.604 14.4211 229.169 14.2947C228.735 14.1544 228.239 14.0842 227.682 14.0842C226.88 14.0842 226.262 14.2456 225.827 14.5684C225.406 14.8772 225.196 15.3123 225.196 15.8737C225.196 16.2807 225.332 16.6175 225.603 16.8842C225.889 17.1509 226.262 17.3895 226.724 17.6C227.186 17.7965 227.709 17.986 228.293 18.1684C228.877 18.3509 229.475 18.5544 230.086 18.7789C230.698 19.0035 231.296 19.2702 231.88 19.5789C232.464 19.8737 232.987 20.2456 233.449 20.6947C233.911 21.1298 234.278 21.6632 234.549 22.2947C234.835 22.9263 234.977 23.6842 234.977 24.5684C234.977 25.6491 234.787 26.6456 234.407 27.5579C234.026 28.4702 233.456 29.2561 232.695 29.9158C231.948 30.5754 231.017 31.0877 229.903 31.4526C228.803 31.8175 227.532 32 226.092 32C225.372 32 224.652 31.9298 223.932 31.7895C223.212 31.6491 222.513 31.4596 221.833 31.2211C221.168 30.9825 220.55 30.7018 219.979 30.3789C219.408 30.0421 218.919 29.6842 218.512 29.3053L219.979 26.9053C220.142 26.6246 220.346 26.407 220.59 26.2526C220.848 26.0842 221.174 26 221.568 26C221.935 26 222.261 26.0842 222.547 26.2526C222.845 26.4211 223.165 26.6035 223.504 26.8C223.844 26.9965 224.238 27.1789 224.686 27.3474C225.148 27.5158 225.726 27.6 226.418 27.6C226.907 27.6 227.322 27.5509 227.661 27.4526C228.001 27.3404 228.273 27.193 228.477 27.0105C228.68 26.8281 228.83 26.6246 228.925 26.4C229.02 26.1754 229.068 25.9439 229.068 25.7053C229.068 25.2702 228.925 24.9123 228.64 24.6316C228.354 24.3509 227.981 24.1123 227.519 23.9158C227.057 23.7053 226.527 23.5158 225.929 23.3474C225.345 23.1649 224.747 22.9614 224.136 22.7368C223.525 22.5123 222.92 22.2456 222.322 21.9368C221.738 21.614 221.215 21.214 220.753 20.7368C220.291 20.2456 219.918 19.6491 219.633 18.9474C219.347 18.2456 219.205 17.3965 219.205 16.4C219.205 15.4737 219.374 14.5965 219.714 13.7684C220.067 12.9263 220.59 12.1895 221.283 11.5579C221.976 10.9263 222.845 10.4281 223.892 10.0632C224.938 9.68421 226.16 9.49474 227.56 9.49474C228.32 9.49474 229.054 9.56491 229.76 9.70526C230.48 9.84561 231.153 10.0421 231.778 10.2947C232.403 10.5474 232.973 10.8491 233.49 11.2C234.006 11.5368 234.461 11.9088 234.855 12.3158L233.428 14.6105Z" fill="#141414"/>
<path d="M233.428 14.6105C233.265 14.8772 233.089 15.0667 232.899 15.1789C232.722 15.2912 232.491 15.3474 232.206 15.3474C231.907 15.3474 231.608 15.2842 231.309 15.1579C231.01 15.0175 230.684 14.8702 230.331 14.7158C229.991 14.5614 229.604 14.4211 229.169 14.2947C228.735 14.1544 228.239 14.0842 227.682 14.0842C226.88 14.0842 226.262 14.2456 225.827 14.5684C225.406 14.8772 225.196 15.3123 225.196 15.8737C225.196 16.2807 225.332 16.6175 225.603 16.8842C225.889 17.1509 226.262 17.3895 226.724 17.6C227.186 17.7965 227.709 17.986 228.293 18.1684C228.877 18.3509 229.475 18.5544 230.086 18.7789C230.698 19.0035 231.296 19.2702 231.88 19.5789C232.464 19.8737 232.987 20.2456 233.449 20.6947C233.911 21.1298 234.278 21.6632 234.549 22.2947C234.835 22.9263 234.977 23.6842 234.977 24.5684C234.977 25.6491 234.787 26.6456 234.407 27.5579C234.026 28.4702 233.456 29.2561 232.695 29.9158C231.948 30.5754 231.017 31.0877 229.903 31.4526C228.803 31.8175 227.532 32 226.092 32C225.372 32 224.652 31.9298 223.932 31.7895C223.212 31.6491 222.513 31.4596 221.833 31.2211C221.168 30.9825 220.55 30.7018 219.979 30.3789C219.408 30.0421 218.919 29.6842 218.512 29.3053L219.979 26.9053C220.142 26.6246 220.346 26.407 220.59 26.2526C220.848 26.0842 221.174 26 221.568 26C221.935 26 222.261 26.0842 222.547 26.2526C222.845 26.4211 223.165 26.6035 223.504 26.8C223.844 26.9965 224.238 27.1789 224.686 27.3474C225.148 27.5158 225.726 27.6 226.418 27.6C226.907 27.6 227.322 27.5509 227.661 27.4526C228.001 27.3404 228.273 27.193 228.477 27.0105C228.68 26.8281 228.83 26.6246 228.925 26.4C229.02 26.1754 229.068 25.9439 229.068 25.7053C229.068 25.2702 228.925 24.9123 228.64 24.6316C228.354 24.3509 227.981 24.1123 227.519 23.9158C227.057 23.7053 226.527 23.5158 225.929 23.3474C225.345 23.1649 224.747 22.9614 224.136 22.7368C223.525 22.5123 222.92 22.2456 222.322 21.9368C221.738 21.614 221.215 21.214 220.753 20.7368C220.291 20.2456 219.918 19.6491 219.633 18.9474C219.347 18.2456 219.205 17.3965 219.205 16.4C219.205 15.4737 219.374 14.5965 219.714 13.7684C220.067 12.9263 220.59 12.1895 221.283 11.5579C221.976 10.9263 222.845 10.4281 223.892 10.0632C224.938 9.68421 226.16 9.49474 227.56 9.49474C228.32 9.49474 229.054 9.56491 229.76 9.70526C230.48 9.84561 231.153 10.0421 231.778 10.2947C232.403 10.5474 232.973 10.8491 233.49 11.2C234.006 11.5368 234.461 11.9088 234.855 12.3158L233.428 14.6105Z" fill="#141414"/>
<path d="M260.399 15.6842C259.924 15.1368 259.407 14.7579 258.85 14.5474C258.293 14.3228 257.709 14.2105 257.098 14.2105C256.514 14.2105 255.977 14.3298 255.488 14.5684C254.999 14.807 254.571 15.193 254.204 15.7263C253.851 16.2456 253.572 16.9263 253.369 17.7684C253.165 18.6105 253.063 19.6281 253.063 20.8211C253.063 21.9719 253.144 22.9403 253.307 23.7263C253.47 24.5123 253.695 25.1509 253.98 25.6421C254.279 26.1193 254.632 26.4632 255.04 26.6737C255.447 26.8842 255.902 26.9895 256.405 26.9895C256.867 26.9895 257.281 26.9474 257.648 26.8632C258.028 26.7649 258.375 26.6316 258.687 26.4632C259 26.2947 259.292 26.0842 259.564 25.8316C259.849 25.5649 260.127 25.2632 260.399 24.9263V15.6842ZM266.716 0.147368V31.6632H262.804C262.016 31.6632 261.499 31.2982 261.255 30.5684L260.766 28.9053C260.345 29.3684 259.903 29.7895 259.441 30.1684C258.979 30.5474 258.477 30.8772 257.933 31.1579C257.403 31.4246 256.826 31.6281 256.201 31.7684C255.59 31.9228 254.924 32 254.204 32C253.104 32 252.085 31.7474 251.147 31.2421C250.21 30.7368 249.402 30.007 248.722 29.0526C248.043 28.0982 247.507 26.9333 247.113 25.5579C246.732 24.1684 246.542 22.5895 246.542 20.8211C246.542 19.193 246.759 17.6842 247.194 16.2947C247.629 14.8912 248.24 13.6842 249.028 12.6737C249.83 11.6491 250.787 10.8491 251.901 10.2737C253.015 9.69824 254.245 9.41053 255.59 9.41053C256.69 9.41053 257.614 9.57193 258.361 9.89474C259.108 10.2175 259.788 10.6526 260.399 11.2V0.147368H266.716Z" fill="#141414"/>
<path d="M260.399 15.6842C259.924 15.1368 259.407 14.7579 258.85 14.5474C258.293 14.3228 257.709 14.2105 257.098 14.2105C256.514 14.2105 255.977 14.3298 255.488 14.5684C254.999 14.807 254.571 15.193 254.204 15.7263C253.851 16.2456 253.572 16.9263 253.369 17.7684C253.165 18.6105 253.063 19.6281 253.063 20.8211C253.063 21.9719 253.144 22.9403 253.307 23.7263C253.47 24.5123 253.695 25.1509 253.98 25.6421C254.279 26.1193 254.632 26.4632 255.04 26.6737C255.447 26.8842 255.902 26.9895 256.405 26.9895C256.867 26.9895 257.281 26.9474 257.648 26.8632C258.028 26.7649 258.375 26.6316 258.687 26.4632C259 26.2947 259.292 26.0842 259.564 25.8316C259.849 25.5649 260.127 25.2632 260.399 24.9263V15.6842ZM266.716 0.147368V31.6632H262.804C262.016 31.6632 261.499 31.2982 261.255 30.5684L260.766 28.9053C260.345 29.3684 259.903 29.7895 259.441 30.1684C258.979 30.5474 258.477 30.8772 257.933 31.1579C257.403 31.4246 256.826 31.6281 256.201 31.7684C255.59 31.9228 254.924 32 254.204 32C253.104 32 252.085 31.7474 251.147 31.2421C250.21 30.7368 249.402 30.007 248.722 29.0526C248.043 28.0982 247.507 26.9333 247.113 25.5579C246.732 24.1684 246.542 22.5895 246.542 20.8211C246.542 19.193 246.759 17.6842 247.194 16.2947C247.629 14.8912 248.24 13.6842 249.028 12.6737C249.83 11.6491 250.787 10.8491 251.901 10.2737C253.015 9.69824 254.245 9.41053 255.59 9.41053C256.69 9.41053 257.614 9.57193 258.361 9.89474C259.108 10.2175 259.788 10.6526 260.399 11.2V0.147368H266.716Z" fill="#141414"/>
<path d="M260.399 15.6842C259.924 15.1368 259.407 14.7579 258.85 14.5474C258.293 14.3228 257.709 14.2105 257.098 14.2105C256.514 14.2105 255.977 14.3298 255.488 14.5684C254.999 14.807 254.571 15.193 254.204 15.7263C253.851 16.2456 253.572 16.9263 253.369 17.7684C253.165 18.6105 253.063 19.6281 253.063 20.8211C253.063 21.9719 253.144 22.9403 253.307 23.7263C253.47 24.5123 253.695 25.1509 253.98 25.6421C254.279 26.1193 254.632 26.4632 255.04 26.6737C255.447 26.8842 255.902 26.9895 256.405 26.9895C256.867 26.9895 257.281 26.9474 257.648 26.8632C258.028 26.7649 258.375 26.6316 258.687 26.4632C259 26.2947 259.292 26.0842 259.564 25.8316C259.849 25.5649 260.127 25.2632 260.399 24.9263V15.6842ZM266.716 0.147368V31.6632H262.804C262.016 31.6632 261.499 31.2982 261.255 30.5684L260.766 28.9053C260.345 29.3684 259.903 29.7895 259.441 30.1684C258.979 30.5474 258.477 30.8772 257.933 31.1579C257.403 31.4246 256.826 31.6281 256.201 31.7684C255.59 31.9228 254.924 32 254.204 32C253.104 32 252.085 31.7474 251.147 31.2421C250.21 30.7368 249.402 30.007 248.722 29.0526C248.043 28.0982 247.507 26.9333 247.113 25.5579C246.732 24.1684 246.542 22.5895 246.542 20.8211C246.542 19.193 246.759 17.6842 247.194 16.2947C247.629 14.8912 248.24 13.6842 249.028 12.6737C249.83 11.6491 250.787 10.8491 251.901 10.2737C253.015 9.69824 254.245 9.41053 255.59 9.41053C256.69 9.41053 257.614 9.57193 258.361 9.89474C259.108 10.2175 259.788 10.6526 260.399 11.2V0.147368H266.716Z" fill="#141414"/>
<path d="M281.886 22.7789C280.623 22.8351 279.584 22.9474 278.768 23.1158C277.953 23.2842 277.308 23.4947 276.833 23.7474C276.357 24 276.024 24.2877 275.834 24.6105C275.657 24.9333 275.569 25.2842 275.569 25.6632C275.569 26.407 275.766 26.9333 276.16 27.2421C276.554 27.5368 277.131 27.6842 277.892 27.6842C278.707 27.6842 279.421 27.5368 280.032 27.2421C280.643 26.9474 281.261 26.4702 281.886 25.8105V22.7789ZM270.515 12.8632C271.792 11.6982 273.205 10.8351 274.754 10.2737C276.316 9.69824 277.987 9.41053 279.767 9.41053C281.044 9.41053 282.192 9.62807 283.211 10.0632C284.243 10.4842 285.113 11.0807 285.819 11.8526C286.539 12.6105 287.089 13.5158 287.47 14.5684C287.85 15.6211 288.04 16.7719 288.04 18.0211V31.6632H285.147C284.549 31.6632 284.094 31.5789 283.781 31.4105C283.483 31.2421 283.231 30.8912 283.027 30.3579L282.579 29.1579C282.049 29.6211 281.54 30.0281 281.051 30.3789C280.562 30.7298 280.052 31.0316 279.522 31.2842C279.006 31.5228 278.449 31.6982 277.851 31.8105C277.267 31.9368 276.615 32 275.895 32C274.931 32 274.054 31.8737 273.266 31.6211C272.478 31.3544 271.806 30.9684 271.249 30.4632C270.706 29.9579 270.284 29.3333 269.986 28.5895C269.687 27.8316 269.537 26.9614 269.537 25.9789C269.537 25.193 269.727 24.4 270.108 23.6C270.488 22.786 271.147 22.0491 272.084 21.3895C273.022 20.7158 274.285 20.1544 275.875 19.7053C277.464 19.2561 279.468 19.0035 281.886 18.9474V18.0211C281.886 16.7439 281.628 15.8246 281.112 15.2632C280.609 14.6877 279.889 14.4 278.952 14.4C278.205 14.4 277.593 14.4842 277.118 14.6526C276.642 14.8211 276.214 15.0105 275.834 15.2211C275.467 15.4316 275.107 15.6211 274.754 15.7895C274.401 15.9579 273.98 16.0421 273.491 16.0421C273.056 16.0421 272.689 15.9298 272.39 15.7053C272.091 15.4807 271.847 15.214 271.657 14.9053L270.515 12.8632Z" fill="#141414"/>
<path d="M281.886 22.7789C280.623 22.8351 279.584 22.9474 278.768 23.1158C277.953 23.2842 277.308 23.4947 276.833 23.7474C276.357 24 276.024 24.2877 275.834 24.6105C275.657 24.9333 275.569 25.2842 275.569 25.6632C275.569 26.407 275.766 26.9333 276.16 27.2421C276.554 27.5368 277.131 27.6842 277.892 27.6842C278.707 27.6842 279.421 27.5368 280.032 27.2421C280.643 26.9474 281.261 26.4702 281.886 25.8105V22.7789ZM270.515 12.8632C271.792 11.6982 273.205 10.8351 274.754 10.2737C276.316 9.69824 277.987 9.41053 279.767 9.41053C281.044 9.41053 282.192 9.62807 283.211 10.0632C284.243 10.4842 285.113 11.0807 285.819 11.8526C286.539 12.6105 287.089 13.5158 287.47 14.5684C287.85 15.6211 288.04 16.7719 288.04 18.0211V31.6632H285.147C284.549 31.6632 284.094 31.5789 283.781 31.4105C283.483 31.2421 283.231 30.8912 283.027 30.3579L282.579 29.1579C282.049 29.6211 281.54 30.0281 281.051 30.3789C280.562 30.7298 280.052 31.0316 279.522 31.2842C279.006 31.5228 278.449 31.6982 277.851 31.8105C277.267 31.9368 276.615 32 275.895 32C274.931 32 274.054 31.8737 273.266 31.6211C272.478 31.3544 271.806 30.9684 271.249 30.4632C270.706 29.9579 270.284 29.3333 269.986 28.5895C269.687 27.8316 269.537 26.9614 269.537 25.9789C269.537 25.193 269.727 24.4 270.108 23.6C270.488 22.786 271.147 22.0491 272.084 21.3895C273.022 20.7158 274.285 20.1544 275.875 19.7053C277.464 19.2561 279.468 19.0035 281.886 18.9474V18.0211C281.886 16.7439 281.628 15.8246 281.112 15.2632C280.609 14.6877 279.889 14.4 278.952 14.4C278.205 14.4 277.593 14.4842 277.118 14.6526C276.642 14.8211 276.214 15.0105 275.834 15.2211C275.467 15.4316 275.107 15.6211 274.754 15.7895C274.401 15.9579 273.98 16.0421 273.491 16.0421C273.056 16.0421 272.689 15.9298 272.39 15.7053C272.091 15.4807 271.847 15.214 271.657 14.9053L270.515 12.8632Z" fill="#141414"/>
<path d="M281.886 22.7789C280.623 22.8351 279.584 22.9474 278.768 23.1158C277.953 23.2842 277.308 23.4947 276.833 23.7474C276.357 24 276.024 24.2877 275.834 24.6105C275.657 24.9333 275.569 25.2842 275.569 25.6632C275.569 26.407 275.766 26.9333 276.16 27.2421C276.554 27.5368 277.131 27.6842 277.892 27.6842C278.707 27.6842 279.421 27.5368 280.032 27.2421C280.643 26.9474 281.261 26.4702 281.886 25.8105V22.7789ZM270.515 12.8632C271.792 11.6982 273.205 10.8351 274.754 10.2737C276.316 9.69824 277.987 9.41053 279.767 9.41053C281.044 9.41053 282.192 9.62807 283.211 10.0632C284.243 10.4842 285.113 11.0807 285.819 11.8526C286.539 12.6105 287.089 13.5158 287.47 14.5684C287.85 15.6211 288.04 16.7719 288.04 18.0211V31.6632H285.147C284.549 31.6632 284.094 31.5789 283.781 31.4105C283.483 31.2421 283.231 30.8912 283.027 30.3579L282.579 29.1579C282.049 29.6211 281.54 30.0281 281.051 30.3789C280.562 30.7298 280.052 31.0316 279.522 31.2842C279.006 31.5228 278.449 31.6982 277.851 31.8105C277.267 31.9368 276.615 32 275.895 32C274.931 32 274.054 31.8737 273.266 31.6211C272.478 31.3544 271.806 30.9684 271.249 30.4632C270.706 29.9579 270.284 29.3333 269.986 28.5895C269.687 27.8316 269.537 26.9614 269.537 25.9789C269.537 25.193 269.727 24.4 270.108 23.6C270.488 22.786 271.147 22.0491 272.084 21.3895C273.022 20.7158 274.285 20.1544 275.875 19.7053C277.464 19.2561 279.468 19.0035 281.886 18.9474V18.0211C281.886 16.7439 281.628 15.8246 281.112 15.2632C280.609 14.6877 279.889 14.4 278.952 14.4C278.205 14.4 277.593 14.4842 277.118 14.6526C276.642 14.8211 276.214 15.0105 275.834 15.2211C275.467 15.4316 275.107 15.6211 274.754 15.7895C274.401 15.9579 273.98 16.0421 273.491 16.0421C273.056 16.0421 272.689 15.9298 272.39 15.7053C272.091 15.4807 271.847 15.214 271.657 14.9053L270.515 12.8632Z" fill="#141414"/>
<path d="M318.649 7.22105C318.445 7.55789 318.228 7.81053 317.997 7.97895C317.78 8.14737 317.494 8.23158 317.141 8.23158C316.829 8.23158 316.489 8.13333 316.122 7.93684C315.769 7.72631 315.361 7.49474 314.9 7.2421C314.451 6.98947 313.935 6.76491 313.351 6.56842C312.767 6.3579 312.101 6.25263 311.354 6.25263C310.063 6.25263 309.099 6.54035 308.46 7.11579C307.835 7.67719 307.523 8.44211 307.523 9.41053C307.523 10.0281 307.713 10.5404 308.093 10.9474C308.474 11.3544 308.97 11.7053 309.581 12C310.206 12.2947 310.912 12.5684 311.7 12.8211C312.502 13.0596 313.317 13.3333 314.146 13.6421C314.974 13.9368 315.783 14.2877 316.571 14.6947C317.372 15.1018 318.079 15.6211 318.69 16.2526C319.315 16.8842 319.817 17.6561 320.198 18.5684C320.578 19.4667 320.768 20.5544 320.768 21.8316C320.768 23.2491 320.531 24.5754 320.055 25.8105C319.58 27.0456 318.887 28.1263 317.977 29.0526C317.08 29.9649 315.966 30.6877 314.635 31.2211C313.317 31.7404 311.816 32 310.131 32C309.207 32 308.263 31.9018 307.299 31.7053C306.348 31.5088 305.424 31.2351 304.527 30.8842C303.631 30.5193 302.788 30.0912 302 29.6C301.212 29.1088 300.526 28.5614 299.942 27.9579L301.98 24.6316C302.143 24.393 302.354 24.1965 302.612 24.0421C302.883 23.8737 303.175 23.7895 303.488 23.7895C303.895 23.7895 304.303 23.9228 304.711 24.1895C305.132 24.4561 305.6 24.7509 306.117 25.0737C306.646 25.3965 307.251 25.6912 307.93 25.9579C308.61 26.2246 309.411 26.3579 310.335 26.3579C311.585 26.3579 312.556 26.0772 313.249 25.5158C313.942 24.9404 314.288 24.0351 314.288 22.8C314.288 22.0842 314.098 21.5018 313.718 21.0526C313.337 20.6035 312.835 20.2316 312.21 19.9368C311.598 19.6421 310.899 19.3825 310.111 19.1579C309.323 18.9333 308.514 18.6877 307.686 18.4211C306.857 18.1404 306.049 17.8035 305.261 17.4105C304.473 17.0035 303.766 16.4772 303.141 15.8316C302.53 15.1719 302.034 14.3579 301.654 13.3895C301.273 12.407 301.083 11.2 301.083 9.76842C301.083 8.61754 301.307 7.49474 301.756 6.4C302.204 5.30526 302.863 4.32982 303.732 3.47368C304.602 2.61754 305.668 1.93684 306.932 1.43158C308.195 0.912281 309.642 0.652632 311.272 0.652632C312.182 0.652632 313.066 0.729825 313.921 0.884212C314.791 1.02456 315.613 1.24211 316.387 1.53684C317.162 1.81754 317.882 2.1614 318.547 2.56842C319.227 2.9614 319.831 3.41053 320.361 3.91579L318.649 7.22105Z" fill="#141414"/>
<path d="M318.649 7.22105C318.445 7.55789 318.228 7.81053 317.997 7.97895C317.78 8.14737 317.494 8.23158 317.141 8.23158C316.829 8.23158 316.489 8.13333 316.122 7.93684C315.769 7.72631 315.361 7.49474 314.9 7.2421C314.451 6.98947 313.935 6.76491 313.351 6.56842C312.767 6.3579 312.101 6.25263 311.354 6.25263C310.063 6.25263 309.099 6.54035 308.46 7.11579C307.835 7.67719 307.523 8.44211 307.523 9.41053C307.523 10.0281 307.713 10.5404 308.093 10.9474C308.474 11.3544 308.97 11.7053 309.581 12C310.206 12.2947 310.912 12.5684 311.7 12.8211C312.502 13.0596 313.317 13.3333 314.146 13.6421C314.974 13.9368 315.783 14.2877 316.571 14.6947C317.372 15.1018 318.079 15.6211 318.69 16.2526C319.315 16.8842 319.817 17.6561 320.198 18.5684C320.578 19.4667 320.768 20.5544 320.768 21.8316C320.768 23.2491 320.531 24.5754 320.055 25.8105C319.58 27.0456 318.887 28.1263 317.977 29.0526C317.08 29.9649 315.966 30.6877 314.635 31.2211C313.317 31.7404 311.816 32 310.131 32C309.207 32 308.263 31.9018 307.299 31.7053C306.348 31.5088 305.424 31.2351 304.527 30.8842C303.631 30.5193 302.788 30.0912 302 29.6C301.212 29.1088 300.526 28.5614 299.942 27.9579L301.98 24.6316C302.143 24.393 302.354 24.1965 302.612 24.0421C302.883 23.8737 303.175 23.7895 303.488 23.7895C303.895 23.7895 304.303 23.9228 304.711 24.1895C305.132 24.4561 305.6 24.7509 306.117 25.0737C306.646 25.3965 307.251 25.6912 307.93 25.9579C308.61 26.2246 309.411 26.3579 310.335 26.3579C311.585 26.3579 312.556 26.0772 313.249 25.5158C313.942 24.9404 314.288 24.0351 314.288 22.8C314.288 22.0842 314.098 21.5018 313.718 21.0526C313.337 20.6035 312.835 20.2316 312.21 19.9368C311.598 19.6421 310.899 19.3825 310.111 19.1579C309.323 18.9333 308.514 18.6877 307.686 18.4211C306.857 18.1404 306.049 17.8035 305.261 17.4105C304.473 17.0035 303.766 16.4772 303.141 15.8316C302.53 15.1719 302.034 14.3579 301.654 13.3895C301.273 12.407 301.083 11.2 301.083 9.76842C301.083 8.61754 301.307 7.49474 301.756 6.4C302.204 5.30526 302.863 4.32982 303.732 3.47368C304.602 2.61754 305.668 1.93684 306.932 1.43158C308.195 0.912281 309.642 0.652632 311.272 0.652632C312.182 0.652632 313.066 0.729825 313.921 0.884212C314.791 1.02456 315.613 1.24211 316.387 1.53684C317.162 1.81754 317.882 2.1614 318.547 2.56842C319.227 2.9614 319.831 3.41053 320.361 3.91579L318.649 7.22105Z" fill="#141414"/>
<path d="M318.649 7.22105C318.445 7.55789 318.228 7.81053 317.997 7.97895C317.78 8.14737 317.494 8.23158 317.141 8.23158C316.829 8.23158 316.489 8.13333 316.122 7.93684C315.769 7.72631 315.361 7.49474 314.9 7.2421C314.451 6.98947 313.935 6.76491 313.351 6.56842C312.767 6.3579 312.101 6.25263 311.354 6.25263C310.063 6.25263 309.099 6.54035 308.46 7.11579C307.835 7.67719 307.523 8.44211 307.523 9.41053C307.523 10.0281 307.713 10.5404 308.093 10.9474C308.474 11.3544 308.97 11.7053 309.581 12C310.206 12.2947 310.912 12.5684 311.7 12.8211C312.502 13.0596 313.317 13.3333 314.146 13.6421C314.974 13.9368 315.783 14.2877 316.571 14.6947C317.372 15.1018 318.079 15.6211 318.69 16.2526C319.315 16.8842 319.817 17.6561 320.198 18.5684C320.578 19.4667 320.768 20.5544 320.768 21.8316C320.768 23.2491 320.531 24.5754 320.055 25.8105C319.58 27.0456 318.887 28.1263 317.977 29.0526C317.08 29.9649 315.966 30.6877 314.635 31.2211C313.317 31.7404 311.816 32 310.131 32C309.207 32 308.263 31.9018 307.299 31.7053C306.348 31.5088 305.424 31.2351 304.527 30.8842C303.631 30.5193 302.788 30.0912 302 29.6C301.212 29.1088 300.526 28.5614 299.942 27.9579L301.98 24.6316C302.143 24.393 302.354 24.1965 302.612 24.0421C302.883 23.8737 303.175 23.7895 303.488 23.7895C303.895 23.7895 304.303 23.9228 304.711 24.1895C305.132 24.4561 305.6 24.7509 306.117 25.0737C306.646 25.3965 307.251 25.6912 307.93 25.9579C308.61 26.2246 309.411 26.3579 310.335 26.3579C311.585 26.3579 312.556 26.0772 313.249 25.5158C313.942 24.9404 314.288 24.0351 314.288 22.8C314.288 22.0842 314.098 21.5018 313.718 21.0526C313.337 20.6035 312.835 20.2316 312.21 19.9368C311.598 19.6421 310.899 19.3825 310.111 19.1579C309.323 18.9333 308.514 18.6877 307.686 18.4211C306.857 18.1404 306.049 17.8035 305.261 17.4105C304.473 17.0035 303.766 16.4772 303.141 15.8316C302.53 15.1719 302.034 14.3579 301.654 13.3895C301.273 12.407 301.083 11.2 301.083 9.76842C301.083 8.61754 301.307 7.49474 301.756 6.4C302.204 5.30526 302.863 4.32982 303.732 3.47368C304.602 2.61754 305.668 1.93684 306.932 1.43158C308.195 0.912281 309.642 0.652632 311.272 0.652632C312.182 0.652632 313.066 0.729825 313.921 0.884212C314.791 1.02456 315.613 1.24211 316.387 1.53684C317.162 1.81754 317.882 2.1614 318.547 2.56842C319.227 2.9614 319.831 3.41053 320.361 3.91579L318.649 7.22105Z" fill="#141414"/>
<path d="M330.538 9.83158V31.6632H324.221V9.83158H330.538ZM331.19 3.85263C331.19 4.37193 331.088 4.86316 330.884 5.32632C330.681 5.77544 330.402 6.17544 330.049 6.52632C329.696 6.86316 329.281 7.13684 328.806 7.34737C328.344 7.54386 327.848 7.64211 327.318 7.64211C326.802 7.64211 326.32 7.54386 325.871 7.34737C325.423 7.13684 325.022 6.86316 324.669 6.52632C324.33 6.17544 324.058 5.77544 323.854 5.32632C323.664 4.86316 323.569 4.37193 323.569 3.85263C323.569 3.3193 323.664 2.82105 323.854 2.35789C324.058 1.89474 324.33 1.48772 324.669 1.13684C325.022 0.785966 325.423 0.512281 325.871 0.315789C326.32 0.119299 326.802 0.0210536 327.318 0.0210536C327.848 0.0210536 328.344 0.119299 328.806 0.315789C329.281 0.512281 329.696 0.785966 330.049 1.13684C330.402 1.48772 330.681 1.89474 330.884 2.35789C331.088 2.82105 331.19 3.3193 331.19 3.85263Z" fill="#141414"/>
<path d="M330.538 9.83158V31.6632H324.221V9.83158H330.538ZM331.19 3.85263C331.19 4.37193 331.088 4.86316 330.884 5.32632C330.681 5.77544 330.402 6.17544 330.049 6.52632C329.696 6.86316 329.281 7.13684 328.806 7.34737C328.344 7.54386 327.848 7.64211 327.318 7.64211C326.802 7.64211 326.32 7.54386 325.871 7.34737C325.423 7.13684 325.022 6.86316 324.669 6.52632C324.33 6.17544 324.058 5.77544 323.854 5.32632C323.664 4.86316 323.569 4.37193 323.569 3.85263C323.569 3.3193 323.664 2.82105 323.854 2.35789C324.058 1.89474 324.33 1.48772 324.669 1.13684C325.022 0.785966 325.423 0.512281 325.871 0.315789C326.32 0.119299 326.802 0.0210536 327.318 0.0210536C327.848 0.0210536 328.344 0.119299 328.806 0.315789C329.281 0.512281 329.696 0.785966 330.049 1.13684C330.402 1.48772 330.681 1.89474 330.884 2.35789C331.088 2.82105 331.19 3.3193 331.19 3.85263Z" fill="#141414"/>
<path d="M330.538 9.83158V31.6632H324.221V9.83158H330.538ZM331.19 3.85263C331.19 4.37193 331.088 4.86316 330.884 5.32632C330.681 5.77544 330.402 6.17544 330.049 6.52632C329.696 6.86316 329.281 7.13684 328.806 7.34737C328.344 7.54386 327.848 7.64211 327.318 7.64211C326.802 7.64211 326.32 7.54386 325.871 7.34737C325.423 7.13684 325.022 6.86316 324.669 6.52632C324.33 6.17544 324.058 5.77544 323.854 5.32632C323.664 4.86316 323.569 4.37193 323.569 3.85263C323.569 3.3193 323.664 2.82105 323.854 2.35789C324.058 1.89474 324.33 1.48772 324.669 1.13684C325.022 0.785966 325.423 0.512281 325.871 0.315789C326.32 0.119299 326.802 0.0210536 327.318 0.0210536C327.848 0.0210536 328.344 0.119299 328.806 0.315789C329.281 0.512281 329.696 0.785966 330.049 1.13684C330.402 1.48772 330.681 1.89474 330.884 2.35789C331.088 2.82105 331.19 3.3193 331.19 3.85263Z" fill="#141414"/>
<path d="M341.261 0.147368V31.6632H334.944V0.147368H341.261Z" fill="#141414"/>
<path d="M341.261 0.147368V31.6632H334.944V0.147368H341.261Z" fill="#141414"/>
<path d="M341.261 0.147368V31.6632H334.944V0.147368H341.261Z" fill="#141414"/>
<path d="M365.44 9.83158L357.248 31.6632H351.502L343.31 9.83158H348.567C349.015 9.83158 349.389 9.94386 349.688 10.1684C350 10.3789 350.211 10.6456 350.32 10.9684L353.254 20.7579C353.512 21.5579 353.736 22.3368 353.927 23.0947C354.13 23.8526 354.307 24.6105 354.456 25.3684C354.755 23.8526 355.17 22.3158 355.699 20.7579L358.756 10.9684C358.865 10.6456 359.069 10.3789 359.367 10.1684C359.666 9.94386 360.02 9.83158 360.427 9.83158H365.44Z" fill="#141414"/>
<path d="M365.44 9.83158L357.248 31.6632H351.502L343.31 9.83158H348.567C349.015 9.83158 349.389 9.94386 349.688 10.1684C350 10.3789 350.211 10.6456 350.32 10.9684L353.254 20.7579C353.512 21.5579 353.736 22.3368 353.927 23.0947C354.13 23.8526 354.307 24.6105 354.456 25.3684C354.755 23.8526 355.17 22.3158 355.699 20.7579L358.756 10.9684C358.865 10.6456 359.069 10.3789 359.367 10.1684C359.666 9.94386 360.02 9.83158 360.427 9.83158H365.44Z" fill="#141414"/>
<path d="M365.44 9.83158L357.248 31.6632H351.502L343.31 9.83158H348.567C349.015 9.83158 349.389 9.94386 349.688 10.1684C350 10.3789 350.211 10.6456 350.32 10.9684L353.254 20.7579C353.512 21.5579 353.736 22.3368 353.927 23.0947C354.13 23.8526 354.307 24.6105 354.456 25.3684C354.755 23.8526 355.17 22.3158 355.699 20.7579L358.756 10.9684C358.865 10.6456 359.069 10.3789 359.367 10.1684C359.666 9.94386 360.02 9.83158 360.427 9.83158H365.44Z" fill="#141414"/>
<path d="M377.846 22.7789C376.582 22.8351 375.543 22.9474 374.728 23.1158C373.913 23.2842 373.268 23.4947 372.792 23.7474C372.317 24 371.984 24.2877 371.794 24.6105C371.617 24.9333 371.529 25.2842 371.529 25.6632C371.529 26.407 371.726 26.9333 372.12 27.2421C372.514 27.5368 373.091 27.6842 373.852 27.6842C374.667 27.6842 375.38 27.5368 375.991 27.2421C376.603 26.9474 377.221 26.4702 377.846 25.8105V22.7789ZM366.475 12.8632C367.752 11.6982 369.165 10.8351 370.714 10.2737C372.276 9.69824 373.947 9.41053 375.727 9.41053C377.004 9.41053 378.152 9.62807 379.17 10.0632C380.203 10.4842 381.072 11.0807 381.779 11.8526C382.499 12.6105 383.049 13.5158 383.429 14.5684C383.81 15.6211 384 16.7719 384 18.0211V31.6632H381.106C380.509 31.6632 380.053 31.5789 379.741 31.4105C379.442 31.2421 379.191 30.8912 378.987 30.3579L378.539 29.1579C378.009 29.6211 377.499 30.0281 377.01 30.3789C376.521 30.7298 376.012 31.0316 375.482 31.2842C374.966 31.5228 374.409 31.6982 373.811 31.8105C373.227 31.9368 372.575 32 371.855 32C370.89 32 370.014 31.8737 369.226 31.6211C368.438 31.3544 367.766 30.9684 367.209 30.4632C366.665 29.9579 366.244 29.3333 365.945 28.5895C365.646 27.8316 365.497 26.9614 365.497 25.9789C365.497 25.193 365.687 24.4 366.067 23.6C366.448 22.786 367.107 22.0491 368.044 21.3895C368.981 20.7158 370.245 20.1544 371.834 19.7053C373.424 19.2561 375.428 19.0035 377.846 18.9474V18.0211C377.846 16.7439 377.588 15.8246 377.072 15.2632C376.569 14.6877 375.849 14.4 374.911 14.4C374.164 14.4 373.553 14.4842 373.077 14.6526C372.602 14.8211 372.174 15.0105 371.794 15.2211C371.427 15.4316 371.067 15.6211 370.714 15.7895C370.36 15.9579 369.939 16.0421 369.45 16.0421C369.015 16.0421 368.649 15.9298 368.35 15.7053C368.051 15.4807 367.806 15.214 367.616 14.9053L366.475 12.8632Z" fill="#141414"/>
<path d="M377.846 22.7789C376.582 22.8351 375.543 22.9474 374.728 23.1158C373.913 23.2842 373.268 23.4947 372.792 23.7474C372.317 24 371.984 24.2877 371.794 24.6105C371.617 24.9333 371.529 25.2842 371.529 25.6632C371.529 26.407 371.726 26.9333 372.12 27.2421C372.514 27.5368 373.091 27.6842 373.852 27.6842C374.667 27.6842 375.38 27.5368 375.991 27.2421C376.603 26.9474 377.221 26.4702 377.846 25.8105V22.7789ZM366.475 12.8632C367.752 11.6982 369.165 10.8351 370.714 10.2737C372.276 9.69824 373.947 9.41053 375.727 9.41053C377.004 9.41053 378.152 9.62807 379.17 10.0632C380.203 10.4842 381.072 11.0807 381.779 11.8526C382.499 12.6105 383.049 13.5158 383.429 14.5684C383.81 15.6211 384 16.7719 384 18.0211V31.6632H381.106C380.509 31.6632 380.053 31.5789 379.741 31.4105C379.442 31.2421 379.191 30.8912 378.987 30.3579L378.539 29.1579C378.009 29.6211 377.499 30.0281 377.01 30.3789C376.521 30.7298 376.012 31.0316 375.482 31.2842C374.966 31.5228 374.409 31.6982 373.811 31.8105C373.227 31.9368 372.575 32 371.855 32C370.89 32 370.014 31.8737 369.226 31.6211C368.438 31.3544 367.766 30.9684 367.209 30.4632C366.665 29.9579 366.244 29.3333 365.945 28.5895C365.646 27.8316 365.497 26.9614 365.497 25.9789C365.497 25.193 365.687 24.4 366.067 23.6C366.448 22.786 367.107 22.0491 368.044 21.3895C368.981 20.7158 370.245 20.1544 371.834 19.7053C373.424 19.2561 375.428 19.0035 377.846 18.9474V18.0211C377.846 16.7439 377.588 15.8246 377.072 15.2632C376.569 14.6877 375.849 14.4 374.911 14.4C374.164 14.4 373.553 14.4842 373.077 14.6526C372.602 14.8211 372.174 15.0105 371.794 15.2211C371.427 15.4316 371.067 15.6211 370.714 15.7895C370.36 15.9579 369.939 16.0421 369.45 16.0421C369.015 16.0421 368.649 15.9298 368.35 15.7053C368.051 15.4807 367.806 15.214 367.616 14.9053L366.475 12.8632Z" fill="#141414"/>
<path d="M377.846 22.7789C376.582 22.8351 375.543 22.9474 374.728 23.1158C373.913 23.2842 373.268 23.4947 372.792 23.7474C372.317 24 371.984 24.2877 371.794 24.6105C371.617 24.9333 371.529 25.2842 371.529 25.6632C371.529 26.407 371.726 26.9333 372.12 27.2421C372.514 27.5368 373.091 27.6842 373.852 27.6842C374.667 27.6842 375.38 27.5368 375.991 27.2421C376.603 26.9474 377.221 26.4702 377.846 25.8105V22.7789ZM366.475 12.8632C367.752 11.6982 369.165 10.8351 370.714 10.2737C372.276 9.69824 373.947 9.41053 375.727 9.41053C377.004 9.41053 378.152 9.62807 379.17 10.0632C380.203 10.4842 381.072 11.0807 381.779 11.8526C382.499 12.6105 383.049 13.5158 383.429 14.5684C383.81 15.6211 384 16.7719 384 18.0211V31.6632H381.106C380.509 31.6632 380.053 31.5789 379.741 31.4105C379.442 31.2421 379.191 30.8912 378.987 30.3579L378.539 29.1579C378.009 29.6211 377.499 30.0281 377.01 30.3789C376.521 30.7298 376.012 31.0316 375.482 31.2842C374.966 31.5228 374.409 31.6982 373.811 31.8105C373.227 31.9368 372.575 32 371.855 32C370.89 32 370.014 31.8737 369.226 31.6211C368.438 31.3544 367.766 30.9684 367.209 30.4632C366.665 29.9579 366.244 29.3333 365.945 28.5895C365.646 27.8316 365.497 26.9614 365.497 25.9789C365.497 25.193 365.687 24.4 366.067 23.6C366.448 22.786 367.107 22.0491 368.044 21.3895C368.981 20.7158 370.245 20.1544 371.834 19.7053C373.424 19.2561 375.428 19.0035 377.846 18.9474V18.0211C377.846 16.7439 377.588 15.8246 377.072 15.2632C376.569 14.6877 375.849 14.4 374.911 14.4C374.164 14.4 373.553 14.4842 373.077 14.6526C372.602 14.8211 372.174 15.0105 371.794 15.2211C371.427 15.4316 371.067 15.6211 370.714 15.7895C370.36 15.9579 369.939 16.0421 369.45 16.0421C369.015 16.0421 368.649 15.9298 368.35 15.7053C368.051 15.4807 367.806 15.214 367.616 14.9053L366.475 12.8632Z" fill="#141414"/>
</svg>
